<?xml version="1.0" standalone="no"?>
<!DOCTYPE svg PUBLIC "-//W3C//DTD SVG 1.1//EN" "http://www.w3.org/Graphics/SVG/1.1/DTD/svg11.dtd" >
<svg xmlns="http://www.w3.org/2000/svg">
<metadata>Generated by IcoMoon</metadata>
<defs>
<font id="icomoon" horiz-adv-x="1024">
<font-face units-per-em="1024" ascent="960" descent="-64" />
<missing-glyph horiz-adv-x="1024" />
<glyph unicode="&#x20;" horiz-adv-x="512" d="" />
<glyph unicode="&#xe900;" glyph-name="business-profile" d="M994.188 777.992c-0.063 0-0.125 0.008-0.188 0.008h-272v30c0 49.625-40.375 90-90 90h-240c-49.625 0-90-40.375-90-90v-30h-272c-16.703 0-30-13.688-30-30v-660c0-49.625 40.375-90 90-90h844c49.625 0 90 40.375 90 90v659.367c0 0.039 0 0.078 0 0.117-1.148 19.703-13.266 30.398-29.813 30.508zM362 808c0 16.539 13.461 30 30 30h240c16.539 0 30-13.461 30-30v-30h-300zM952.375 718l-93.164-279.484c-4.086-12.273-15.523-20.516-28.453-20.516h-168.758v30c0 16.57-13.43 30-30 30h-240c-16.57 0-30-13.43-30-30v-30h-168.758c-12.93 0-24.367 8.242-28.453 20.516l-93.164 279.484zM602 418v-60h-180v60zM964 88c0-16.539-13.461-30-30-30h-844c-16.539 0-30 13.461-30 30v475.133l47.867-143.594c12.266-36.813 46.578-61.539 85.375-61.539h168.758v-30c0-16.57 13.43-30 30-30h240c16.57 0 30 13.43 30 30v30h168.758c38.797 0 73.109 24.727 85.375 61.539l47.867 143.594z" />
<glyph unicode="&#xe901;" glyph-name="single-profile" d="M504.702 466.735c67.765 0 126.437 24.305 174.39 72.258 47.937 47.945 72.25 106.609 72.25 174.382 0 67.75-24.305 126.422-72.258 174.382-47.953 47.937-106.625 72.242-174.382 72.242-67.773 0-126.437-24.305-174.382-72.25s-72.258-106.617-72.258-174.375c0-67.773 24.312-126.445 72.258-174.39 47.961-47.937 106.633-72.25 174.382-72.25zM372.757 845.321c36.789 36.789 79.945 54.672 131.945 54.672 51.992 0 95.156-17.883 131.953-54.672 36.789-36.797 54.68-79.961 54.68-131.945 0-52-17.891-95.156-54.68-131.953-36.797-36.797-79.961-54.68-131.953-54.68-51.984 0-95.14 17.891-131.945 54.68-36.797 36.789-54.687 79.953-54.687 131.953 0 51.984 17.891 95.148 54.687 131.945zM936.256 172.595c-1.383 19.953-4.18 41.719-8.297 64.703-4.156 23.156-9.508 45.047-15.914 65.055-6.625 20.68-15.617 41.101-26.75 60.672-11.539 20.312-25.102 38-40.32 52.555-15.914 15.227-35.398 27.469-57.93 36.398-22.453 8.883-47.336 13.383-73.953 13.383-10.453 0-20.562-4.289-40.086-17-12.016-7.836-26.070-16.898-41.758-26.922-13.414-8.547-31.586-16.555-54.031-23.805-21.898-7.086-44.133-10.68-66.086-10.68-21.937 0-44.172 3.594-66.086 10.68-22.422 7.242-40.601 15.25-53.992 23.797-15.539 9.93-29.602 18.992-41.797 26.937-19.508 12.711-29.617 17-40.070 17-26.625 0-51.5-4.508-73.945-13.398-22.516-8.914-42.008-21.156-57.937-36.398-15.219-14.562-28.781-32.242-40.312-52.547-11.117-19.57-20.117-39.984-26.742-60.68-6.398-20.008-11.75-41.891-15.906-65.047-4.125-22.953-6.914-44.726-8.297-64.726-1.359-19.555-2.047-39.906-2.047-60.469 0-53.453 16.992-96.726 50.5-128.64 33.094-31.492 76.875-47.461 130.133-47.461h493.062c53.242 0 97.023 15.969 130.125 47.461 33.516 31.891 50.508 75.18 50.508 128.648-0.008 20.633-0.703 40.984-2.070 60.484zM846.444 26.939c-21.867-20.812-50.898-30.93-88.758-30.93h-493.054c-37.867 0-66.898 10.117-88.758 30.922-21.445 20.414-31.867 48.281-31.867 85.172 0 19.187 0.633 38.133 1.898 56.32 1.234 17.844 3.758 37.445 7.5 58.273 3.695 20.57 8.398 39.875 13.992 57.351 5.367 16.758 12.687 33.351 21.766 49.336 8.664 15.234 18.633 28.305 29.633 38.836 10.289 9.852 23.258 17.914 38.539 23.961 14.133 5.594 30.016 8.656 47.258 9.117 2.102-1.117 5.844-3.25 11.906-7.203 12.336-8.039 26.555-17.211 42.273-27.25 17.719-11.297 40.547-21.5 67.82-30.305 27.883-9.016 56.32-13.594 84.547-13.594s56.672 4.578 84.539 13.586c27.297 8.82 50.117 19.016 67.859 30.328 16.086 10.281 29.906 19.187 42.242 27.234 6.062 3.945 9.805 6.086 11.906 7.203 17.25-0.461 33.133-3.523 47.273-9.117 15.273-6.047 28.242-14.117 38.531-23.961 11-10.523 20.969-23.594 29.633-38.844 9.086-15.977 16.414-32.578 21.773-49.32 5.602-17.5 10.312-36.797 14-57.351 3.734-20.867 6.266-40.476 7.5-58.289v-0.016c1.273-18.117 1.914-37.055 1.922-56.297-0.008-36.898-10.43-64.758-31.875-85.164z" />
<glyph unicode="&#xe902;" glyph-name="certificate" d="M511.938 744.054c-100.047 0-181.445-81.39-181.445-181.437 0-100.054 81.398-181.445 181.445-181.445s181.437 81.39 181.437 181.445c0 100.047-81.39 181.437-181.437 181.437zM889.866 439.82l-55.023 122.797 55.023 122.797-116.687 67.008-27.664 131.687-133.797-14.383-99.781 90.273-99.789-90.273-133.789 14.375-27.664-131.687-116.695-67 55.023-122.797-55.023-122.797 116.695-67.008 14.984-71.344-124.562-264.679 130-1.703 84.172-99.086 122.437 260.179 34.211-30.945 34.203 30.945 122.445-260.179 84.164 99.086 130 1.703-124.562 264.679 14.992 71.344zM511.938 321.18c-133.133 0-241.437 108.304-241.437 241.437s108.304 241.437 241.437 241.437c133.125 0 241.437-108.312 241.437-241.437 0-133.133-108.312-241.437-241.437-241.437z" />
<glyph unicode="&#xe903;" glyph-name="grid" d="M461.227 906.239c0 11.787-9.547 21.333-21.333 21.333h-386.133c-11.787 0-21.333-9.547-21.333-21.333v-386.133c0-11.787 9.547-21.333 21.333-21.333h386.133c11.787 0 21.333 9.547 21.333 21.333zM418.56 541.439h-343.467v343.467h343.467zM992.427 906.239c0 11.787-9.547 21.333-21.333 21.333h-386.133c-11.787 0-21.333-9.547-21.333-21.333v-386.133c0-11.787 9.547-21.333 21.333-21.333h386.133c11.787 0 21.333 9.547 21.333 21.333zM949.76 541.439h-343.467v343.467h343.467zM461.227 375.039c0 11.787-9.547 21.333-21.333 21.333h-386.133c-11.787 0-21.333-9.547-21.333-21.333v-386.133c0-11.787 9.547-21.333 21.333-21.333h386.133c11.787 0 21.333 9.547 21.333 21.333zM418.56 12.372h-343.467v341.333h343.467zM992.427 375.039c0 11.787-9.547 21.333-21.333 21.333h-386.133c-11.787 0-21.333-9.547-21.333-21.333v-386.133c0-11.787 9.547-21.333 21.333-21.333h386.133c11.787 0 21.333 9.547 21.333 21.333zM949.76 12.372h-343.467v341.333h343.467z" />
<glyph unicode="&#xe904;" glyph-name="list" d="M110.2 678.226c60.85 0 110.2 49.559 110.2 110.2s-49.349 110.409-110.2 110.409-110.2-49.559-110.2-110.2 49.559-110.409 110.2-110.409zM110.2 847.604c32.621 0 58.968-26.557 58.968-58.968s-26.557-58.968-58.968-58.968-58.968 26.557-58.968 58.968 26.557 58.968 58.968 58.968zM110.2 337.799c60.85 0 110.2 49.559 110.2 110.2s-49.349 110.2-110.2 110.2-110.2-49.349-110.2-110.2 49.559-110.2 110.2-110.2zM110.2 506.967c32.621 0 58.968-26.557 58.968-58.968s-26.557-58.968-58.968-58.968-58.968 26.348-58.968 58.968 26.557 58.968 58.968 58.968zM110.2-2.837c60.85 0 110.2 49.559 110.2 110.2 0 60.85-49.559 110.2-110.2 110.2s-110.2-49.559-110.2-110.2c0-60.641 49.559-110.2 110.2-110.2zM110.2 166.54c32.621 0 58.968-26.557 58.968-58.968 0-32.621-26.557-58.968-58.968-58.968s-58.968 26.557-58.968 58.968c0 32.412 26.557 58.968 58.968 58.968zM367.82 762.915h630.459c14.219 0 25.72 11.501 25.72 25.72s-11.501 25.72-25.72 25.72h-630.459c-14.219 0-25.72-11.501-25.72-25.72s11.501-25.72 25.72-25.72zM367.82 422.279h630.459c14.219 0 25.72 11.501 25.72 25.72s-11.501 25.72-25.72 25.72h-630.459c-14.219 0-25.72-11.501-25.72-25.72s11.501-25.72 25.72-25.72zM367.82 81.852h630.459c14.219 0 25.72 11.501 25.72 25.72s-11.501 25.72-25.72 25.72h-630.459c-14.219 0-25.72-11.501-25.72-25.72s11.501-25.72 25.72-25.72z" />
<glyph unicode="&#xe905;" glyph-name="pencil" d="M975.219 911.236c-65.054 65.017-170.864 65.017-235.918 0l-668.371-668.371c-0.315-0.315-0.5-0.704-0.778-1.038-0.389-0.445-0.723-0.927-1.075-1.409-0.982-1.372-1.742-2.836-2.317-4.43-0.167-0.482-0.408-0.908-0.537-1.39-0.056-0.185-0.167-0.371-0.222-0.556l-65.517-275.229c-0.297-1.242-0.371-2.502-0.408-3.744 0-0.241-0.074-0.463-0.074-0.704 0.019-2.113 0.482-4.17 1.205-6.153 0.167-0.463 0.352-0.871 0.556-1.316 0.908-1.983 2.039-3.892 3.633-5.486 1.761-1.761 3.837-3.114 6.079-4.040s4.633-1.39 7.024-1.39c1.427 0 2.873 0.167 4.281 0.5l275.229 65.517c0.5 0.111 0.945 0.389 1.427 0.556 0.63 0.204 1.223 0.445 1.835 0.723 1.334 0.612 2.576 1.372 3.725 2.28 0.445 0.352 0.908 0.612 1.334 1.001 0.148 0.148 0.334 0.222 0.482 0.371l668.389 668.389c65.054 65.054 65.054 170.883 0.019 235.918zM949.012 885.029c46.112-46.131 50.042-118.562 12.047-169.345l-181.392 181.392c50.802 37.995 123.232 34.065 169.345-12.047zM857.269 609.8l-183.486 183.486 26.207 26.207 183.486-183.486-26.207-26.207zM91.947 27.964c-7.247 7.247-18.96 7.247-26.207 0l-14.030-14.030 47.336 198.832 81.957 9.1-10.546-94.931c-0.074-0.704 0.185-1.353 0.185-2.039 0-0.704-0.259-1.334-0.185-2.039 0.074-0.612 0.389-1.112 0.519-1.705 0.222-1.075 0.537-2.057 0.927-3.058 0.482-1.205 1.056-2.298 1.761-3.355 0.575-0.853 1.149-1.612 1.853-2.354 0.89-0.945 1.853-1.742 2.91-2.484 0.834-0.575 1.631-1.112 2.558-1.557 1.223-0.575 2.502-0.908 3.837-1.223 0.704-0.167 1.279-0.556 2.002-0.649 0.667-0.074 1.334-0.111 2.020-0.111 0 0 0.019 0 0.019 0s0.019 0 0.019 0h0.019c0 0 0.019 0 0.019 0 0.667 0 1.353 0.037 2.020 0.111l94.931 10.546-9.1-81.957-198.851-47.336 14.030 14.030c7.228 7.228 7.228 18.96 0 26.207zM324.548 129.512l414.752 414.771c7.247 7.247 7.247 18.96 0 26.207s-18.96 7.247-26.207 0l-414.752-414.771-88.462-9.823 9.823 88.462 414.79 414.752c7.247 7.247 7.247 18.96 0 26.207s-18.96 7.247-26.207 0l-414.79-414.752-58.994-6.561 513.075 513.075 183.486-183.486-513.075-513.075 6.561 58.994zM909.683 662.214l-183.486 183.486 26.226 26.226 183.486-183.486-26.226-26.226z" />
<glyph unicode="&#xe906;" glyph-name="bin" d="M653.245 589.002c-13.246 0-23.981-10.735-23.981-23.981v-453.245c0-13.236 10.735-23.981 23.981-23.981s23.981 10.745 23.981 23.981v453.245c0 13.246-10.735 23.981-23.981 23.981zM370.267 589.002c-13.246 0-23.981-10.735-23.981-23.981v-453.245c0-13.236 10.735-23.981 23.981-23.981s23.981 10.745 23.981 23.981v453.245c0 13.246-10.735 23.981-23.981 23.981zM164.029 655.147v-590.846c0-34.923 12.806-67.719 35.176-91.25 22.267-23.597 53.255-36.993 85.686-37.049h453.732c32.44 0.056 63.428 13.452 85.686 37.049 22.37 23.532 35.176 56.328 35.176 91.25v590.846c44.468 11.803 73.283 54.763 67.335 100.393-5.958 45.62-44.824 79.747-90.838 79.756h-122.782v29.976c0.141 25.208-9.827 49.414-27.672 67.222-17.845 17.799-42.089 27.71-67.297 27.503h-212.945c-25.208 0.206-49.452-9.705-67.297-27.503-17.845-17.808-27.813-42.014-27.672-67.222v-29.976h-122.782c-46.014-0.009-84.88-34.136-90.838-79.756-5.948-45.63 22.866-88.59 67.335-100.393zM738.622-16.035h-453.732c-41.002 0-72.899 35.222-72.899 80.337v588.738h599.53v-588.738c0-45.115-31.897-80.337-72.899-80.337zM358.277 865.273c-0.159 12.487 4.749 24.506 13.611 33.321 8.852 8.815 20.899 13.658 33.396 13.443h212.945c12.496 0.215 24.543-4.628 33.396-13.443 8.862-8.806 13.77-20.834 13.611-33.321v-29.976h-306.959zM187.533 787.334h648.448c23.841 0 43.166-19.325 43.166-43.166s-19.325-43.166-43.166-43.166h-648.448c-23.841 0-43.166 19.325-43.166 43.166s19.325 43.166 43.166 43.166zM511.756 589.002c-13.246 0-23.981-10.735-23.981-23.981v-453.245c0-13.236 10.735-23.981 23.981-23.981s23.981 10.745 23.981 23.981v453.245c0 13.246-10.735 23.981-23.981 23.981z" />
<glyph unicode="&#xe907;" glyph-name="plus" d="M512 959.999c-282.309 0-512-229.671-512-512s229.691-512 512-512 512 229.671 512 512-229.691 512-512 512zM512-24.616c-260.588 0-472.615 212.027-472.615 472.615s212.027 472.615 472.615 472.615 472.615-212.027 472.615-472.615-212.027-472.615-472.615-472.615zM758.154 467.691h-226.462v216.615c0 10.89-8.822 19.692-19.692 19.692s-19.692-8.802-19.692-19.692v-216.615h-226.462c-10.87 0-19.692-8.802-19.692-19.692s8.822-19.692 19.692-19.692h226.462v-236.308c0-10.89 8.822-19.692 19.692-19.692s19.692 8.802 19.692 19.692v236.308h226.462c10.87 0 19.692 8.802 19.692 19.692s-8.822 19.692-19.692 19.692z" />
<glyph unicode="&#xe908;" glyph-name="dark-arrow-right" d="M800.34 471.603l-478.15 478.129c-6.843 6.835-14.717 10.267-23.604 10.267-8.891 0-16.761-3.432-23.6-10.267l-51.294-51.305c-6.85-6.839-10.26-14.695-10.26-23.6s3.411-16.761 10.26-23.6l403.238-403.238-403.238-403.245c-6.85-6.839-10.26-14.709-10.26-23.59 0-8.902 3.411-16.772 10.26-23.611l51.298-51.287c6.839-6.846 14.709-10.257 23.6-10.257 8.887 0 16.758 3.418 23.6 10.257l478.125 478.132c6.835 6.835 10.257 14.709 10.257 23.6s-3.396 16.761-10.232 23.615z" />
<glyph unicode="&#xe909;" glyph-name="magnifying-glass" d="M1015.031-11.778l-248.848 248.848c66.753 76.743 107.168 176.873 107.168 286.311 0 240.901-195.945 436.619-436.619 436.619-240.901 0-436.619-195.945-436.619-436.619s195.945-436.619 436.619-436.619c109.439 0 209.568 40.415 286.311 107.168l248.848-248.848c5.903-5.903 13.85-9.082 21.57-9.082s15.667 2.952 21.57 9.082c11.807 11.807 11.807 31.333 0 43.14zM61.19 523.381c0 207.071 168.472 375.315 375.315 375.315 207.071 0 375.315-168.472 375.315-375.315s-168.245-375.542-375.315-375.542c-206.843 0-375.315 168.472-375.315 375.542z" />
<glyph unicode="&#xe90a;" glyph-name="left-arrow" d="M334.018 797.137c14.436 14.436 37.164 14.436 51.6 0 13.949-13.949 13.949-37.164 0-51.080l-261.641-261.641h863.38c20.126 0 36.643-15.997 36.643-36.123s-16.517-36.643-36.643-36.643h-863.38l261.641-261.153c13.949-14.436 13.949-37.684 0-51.6-14.436-14.436-37.164-14.436-51.6 0l-323.581 323.581c-13.949 13.949-13.949 37.164 0 51.080l323.581 323.581z" />
<glyph unicode="&#xe90b;" glyph-name="right-arrow" d="M320.695-2.878c-6.35-6.35-14.288-9.526-23.020-9.526s-16.67 3.175-23.020 9.526c-12.701 12.701-12.701 33.34 0 46.040l404.837 404.837-404.837 404.837c-12.701 12.701-12.701 33.34 0 46.040s33.34 12.701 46.040 0l427.857-427.857c12.701-12.701 12.701-33.34 0-46.040l-427.857-427.857z" />
<glyph unicode="&#xe90c;" glyph-name="down-arrow" d="M962.878 685.346c-12.701 12.701-33.34 12.701-46.040 0l-404.837-405.631-405.631 405.631c-12.701 12.701-33.34 12.701-46.040 0s-12.701-33.34 0-46.040l427.857-427.857c6.35-6.35 14.288-9.526 23.020-9.526 7.938 0 16.67 3.175 23.020 9.526l427.857 427.857c13.495 12.701 13.495 33.34 0.794 46.040z" />
<glyph unicode="&#xe90d;" glyph-name="dashboard" d="M675.84 780.309c-353.28 112.64-675.84-148.48-675.84-486.4 0-46.080 5.12-133.12 20.48-184.32 0-10.24 10.24-20.48 20.48-20.48h936.96c10.24 0 20.48 10.24 25.6 20.48 10.24 51.2 20.48 138.24 20.48 184.32 0 220.16-138.24 419.84-348.16 486.4zM512 703.509c30.72 0 51.2-20.48 51.2-51.2s-20.48-51.2-51.2-51.2-51.2 20.48-51.2 51.2c0 30.72 20.48 51.2 51.2 51.2zM153.6 242.709c-30.72 0-51.2 20.48-51.2 51.2s20.48 51.2 51.2 51.2 51.2-20.48 51.2-51.2c0-30.72-20.48-51.2-51.2-51.2zM296.96 508.949c-20.48-20.48-51.2-20.48-71.68 0s-20.48 56.32-5.12 76.8c20.48 20.48 51.2 20.48 71.68 0s20.48-56.32 5.12-76.8zM512 191.509c-56.32 0-107.52 51.2-92.16 102.4s92.16 204.8 92.16 204.8 76.8-153.6 92.16-204.8c15.36-51.2-35.84-102.4-92.16-102.4zM803.84 508.949c-20.48-20.48-51.2-20.48-71.68 0s-20.48 51.2 0 71.68 51.2 20.48 71.68 0c15.36-15.36 15.36-51.2 0-71.68zM870.4 242.709c-30.72 0-51.2 20.48-51.2 51.2s20.48 51.2 51.2 51.2 51.2-20.48 51.2-51.2c0-30.72-20.48-51.2-51.2-51.2z" />
<glyph unicode="&#xe90e;" glyph-name="growth" d="M981.896 48.799l-50.912 50.912c-2.515 2.433-5.947 3.932-9.728 3.932-7.732 0-14-6.268-14-14 0-3.779 1.498-7.209 3.932-9.728l27.012-27.012h-821.288v821.296l27.008-27c2.534-2.534 6.034-4.101 9.9-4.101 7.732 0 14.001 6.268 14.001 14.001 0 3.866-1.567 7.366-4.101 9.9l-50.92 50.896c-2.533 2.536-6.033 4.104-9.9 4.104s-7.367-1.569-9.9-4.104v0l-50.896-50.904c-2.378-2.504-3.841-5.898-3.841-9.633 0-7.732 6.268-14 14-14 3.735 0 7.129 1.463 9.639 3.847l27.010 27.002v-835.296c0-0.002 0-0.005 0-0.008 0-7.728 6.264-13.992 13.992-13.992 0.003 0 0.006 0 0.008 0h835.288l-27.016-27.016c-2.636-2.549-4.272-6.118-4.272-10.068 0-7.732 6.268-14 14-14 3.953 0 7.523 1.638 10.068 4.272l50.916 50.908c2.536 2.533 4.104 6.033 4.104 9.9s-1.569 7.367-4.104 9.9v0zM193.52 329.999c0.88 0.001 1.741 0.080 2.577 0.229l-0.089-0.013c149.176 26.76 530.984 257.48 675.992 501.072l8.408-35.24c1.518-6.207 7.028-10.743 13.599-10.752h0.001c7.724 0.016 13.98 6.281 13.98 14.008 0 1.15-0.138 2.267-0.4 3.336l0.020-0.096-16.704 70.032c-1.513 6.227-7.040 10.778-13.631 10.778-1.147 0-2.262-0.138-3.329-0.398l0.096 0.020-70.040-16.704c-6.214-1.519-10.754-7.039-10.754-13.62 0-7.733 6.269-14.002 14.002-14.002 1.152 0 2.272 0.139 3.344 0.402l-0.096-0.020 38.96 9.296c-142.048-242.096-528.232-467.2-658.4-490.52-6.607-1.206-11.55-6.918-11.55-13.784 0-7.731 6.267-13.999 13.998-14v0zM274.664 285.999c-7.732 0-14-6.268-14-14v0-150.568c0-7.732 6.268-14 14-14v0h72c7.732 0 14 6.268 14 14v0 150.568c0 7.732-6.268 14-14 14v0zM332.664 135.431h-44v122.568h44zM440.728 381.999c-7.732 0-14-6.268-14-14v0-246.568c0-7.732 6.268-14 14-14v0h72c7.732 0 14 6.268 14 14v0 246.568c0 7.732-6.268 14-14 14v0zM498.728 135.431h-44v218.568h44zM606.792 477.999c-7.729-0.005-13.992-6.271-13.992-14v0-342.568c0-7.732 6.268-14 14-14v0h72c7.73 0.005 13.995 6.27 14 14v0 342.568c-0.005 7.73-6.27 13.995-14 14v0zM664.792 135.431h-43.992v314.568h44zM772.848 573.999c-7.73-0.005-13.995-6.27-14-14v0-438.568c0.005-7.73 6.27-13.995 14-14h72c7.732 0 14 6.268 14 14v0 438.568c0 7.732-6.268 14-14 14v0zM830.848 135.431h-44v410.568h44z" />
<glyph unicode="&#xe90f;" glyph-name="tools" d="M817.957 346.023c-20.395 0-35.691-5.099-50.987-5.099l-147.863 147.863 122.37 122.37 158.061 56.086 117.271 188.653c5.099 10.197 5.099 25.494 0 30.592l-61.185 61.185c-10.197 10.197-25.494 10.197-35.691 5.099l-193.752-112.172-61.185-163.16-122.37-122.37-137.666 147.863c0 15.296 5.099 30.592 5.099 50.987 0 132.567-127.468 229.443-254.937 198.851l76.481-76.481c40.79-40.79 40.79-101.975 0-142.765s-101.975-40.79-142.765 0l-81.58 71.382c-40.79-147.863 96.876-290.628 249.838-244.739l147.863-147.863-61.185-61.185c-35.691 10.197-71.382 0-96.876-25.494l-209.048-209.048c-40.79-40.79-45.889-101.975-10.197-142.765 40.79-45.889 107.074-45.889 147.863-5.099l214.147 214.147c25.494 25.494 35.691 66.284 25.494 96.876l61.185 61.185 147.863-147.863c-5.099-15.296-5.099-35.691-5.099-50.987 0-132.567 127.468-229.443 254.937-198.851l-76.481 76.481c-40.79 40.79-40.79 101.975 0 142.765s101.975 40.79 142.765 0l76.481-76.481c35.691 132.567-66.284 260.036-198.851 260.036z" />
<glyph unicode="&#xe910;" glyph-name="settings" d="M999.906 564.593l-78.703 17.109c-6.844 20.953-15.32 41.391-25.328 61.078l43.57 67.773c7.781 12.109 6.070 28.008-4.102 38.18l-122.609 122.609c-10.172 10.172-26.070 11.883-38.18 4.102l-67.773-43.57c-19.688 10.008-40.125 18.484-61.078 25.328l-17.109 78.703c-3.055 14.063-15.508 24.094-29.898 24.094h-173.391c-14.391 0-26.844-10.031-29.898-24.094l-17.109-78.703c-20.953-6.844-41.391-15.32-61.078-25.328l-67.773 43.57c-12.109 7.781-28.008 6.070-38.18-4.102l-122.609-122.609c-10.172-10.172-11.883-26.070-4.102-38.18l43.57-67.773c-10.008-19.688-18.484-40.125-25.328-61.078l-78.703-17.109c-14.063-3.063-24.094-15.508-24.094-29.898v-173.391c0-14.391 10.031-26.836 24.094-29.898l78.703-17.109c6.844-20.953 15.32-41.391 25.328-61.078l-43.57-67.773c-7.781-12.109-6.070-28.008 4.102-38.18l122.609-122.609c10.172-10.172 26.070-11.883 38.18-4.102l67.773 43.57c19.688-10.008 40.125-18.484 61.078-25.328l17.109-78.703c3.055-14.063 15.508-24.094 29.898-24.094h173.391c14.391 0 26.844 10.031 29.898 24.094l17.109 78.703c20.953 6.844 41.391 15.32 61.078 25.328l67.773-43.57c12.109-7.781 28.008-6.078 38.18 4.102l122.609 122.609c10.172 10.172 11.883 26.070 4.102 38.18l-43.57 67.773c10.008 19.688 18.484 40.125 25.328 61.078l78.703 17.109c14.063 3.063 24.094 15.508 24.094 29.898v173.391c0 14.391-10.031 26.836-24.094 29.898zM695.586 447.999c0-101.227-82.359-183.586-183.586-183.586s-183.586 82.359-183.586 183.586 82.359 183.586 183.586 183.586 183.586-82.359 183.586-183.586z" />
<glyph unicode="&#xe911;" glyph-name="users" d="M876.182 413.358h-79.192c8.072-22.1 12.482-45.95 12.482-70.808v-299.301c0-10.364-1.804-20.312-5.086-29.564h130.922c48.906 0 88.692 39.788 88.692 88.692v163.162c0.002 81.506-66.31 147.818-147.818 147.818zM214.53 342.548c0 24.86 4.41 48.708 12.482 70.808h-79.192c-81.508 0-147.82-66.312-147.82-147.82v-163.162c0-48.904 39.786-88.692 88.692-88.692h130.924c-3.282 9.256-5.086 19.202-5.086 29.566v299.301zM602.523 490.368h-181.044c-81.508 0-147.82-66.312-147.82-147.82v-299.301c0-16.326 13.236-29.564 29.564-29.564h417.557c16.328 0 29.564 13.236 29.564 29.564v299.301c0 81.508-66.312 147.82-147.82 147.82zM512.001 882.319c-98.024 0-177.772-79.748-177.772-177.774 0-66.49 36.698-124.56 90.894-155.048 25.706-14.46 55.342-22.724 86.878-22.724s61.172 8.264 86.878 22.724c54.198 30.488 90.894 88.56 90.894 155.048 0 98.024-79.748 177.774-177.772 177.774zM199.836 716.621c-73.31 0-132.95-59.64-132.95-132.95s59.64-132.95 132.95-132.95c18.596 0 36.304 3.852 52.39 10.776 27.812 11.974 50.744 33.17 64.934 59.72 9.96 18.634 15.626 39.892 15.626 62.454 0 73.308-59.64 132.95-132.95 132.95zM824.166 716.621c-73.31 0-132.95-59.64-132.95-132.95 0-22.564 5.666-43.822 15.626-62.454 14.19-26.552 37.122-47.748 64.934-59.72 16.086-6.924 33.794-10.776 52.39-10.776 73.31 0 132.95 59.64 132.95 132.95s-59.64 132.95-132.95 132.95z" />
<glyph unicode="&#xe912;" glyph-name="tel" d="M996.129 208.486l-142.902 142.902c-51.037 51.037-137.799 30.62-158.213-35.726-15.311-45.935-66.347-71.453-112.28-61.244-102.073 25.518-239.872 158.213-265.39 265.39-15.311 45.935 15.311 96.971 61.244 112.28 66.347 20.415 86.762 107.177 35.726 158.213l-142.902 142.902c-40.829 35.726-102.073 35.726-137.799 0l-96.969-96.969c-96.969-102.073 10.207-372.567 250.079-612.438s510.365-352.154 612.438-250.079l96.969 96.969c35.728 40.829 35.728 102.073 0 137.799z" />
<glyph unicode="&#xe913;" glyph-name="shopping-cart" d="M1019.734 780.8c-4.266 4.266-8.534 8.534-17.066 8.534h-810.668l-21.334 110.932c0 8.534-12.8 17.066-21.334 17.066h-128c-12.798 0.002-21.332-8.532-21.332-21.332s8.534-21.334 21.334-21.334h110.934l102.4-520.534c12.8-68.266 76.8-119.466 145.066-119.466h490.666c12.8 0 21.334 8.534 21.334 21.334s-8.534 21.334-21.334 21.334h-486.4c-34.134 0-68.266 17.066-85.334 46.934l622.934 85.332c8.534 0 17.066 8.534 17.066 17.066l85.334 341.334c0 0 0 8.534-4.266 12.8zM900.266 448l-622.934-81.066-76.8 384h772.268l-72.534-302.934zM362.666 192c-59.732 0-106.666-46.934-106.666-106.666 0-59.734 46.934-106.666 106.666-106.666 59.734 0 106.666 46.934 106.666 106.666 0.002 59.732-46.932 106.666-106.666 106.666zM362.666 21.334c-34.134 0-64 29.868-64 64s29.866 64 64 64c34.134 0 64-29.868 64-64s-29.866-64-64-64zM789.334 192c-59.734 0-106.666-46.934-106.666-106.666 0-59.734 46.934-106.666 106.666-106.666 59.734 0 106.666 46.934 106.666 106.666s-46.934 106.666-106.666 106.666zM789.334 21.334c-34.134 0-64 29.868-64 64s29.866 64 64 64c34.134 0 64-29.868 64-64s-29.868-64-64-64z" />
<glyph unicode="&#xe914;" glyph-name="location" d="M512 959.999c-204.49 0-370.854-166.364-370.854-370.852 0-253.776 331.878-626.334 346.008-642.070 13.272-14.782 36.444-14.756 49.692 0 14.13 15.736 346.008 388.294 346.008 642.070-0.004 204.488-166.366 370.852-370.854 370.852zM512 402.561c-102.884 0-186.584 83.702-186.584 186.586s83.702 186.584 186.584 186.584 186.582-83.702 186.582-186.586-83.7-186.584-186.582-186.584z" />
<glyph unicode="&#xe915;" glyph-name="close" d="M568.571 447.996l443.713 443.715c15.622 15.622 15.622 40.95 0 56.57s-40.95 15.622-56.57 0l-443.715-443.715-443.713 443.715c-15.622 15.622-40.95 15.622-56.57 0s-15.622-40.95 0-56.57l443.713-443.713-443.713-443.715c-15.622-15.622-15.622-40.95 0-56.57 7.81-7.81 18.048-11.714 28.286-11.714s20.474 3.904 28.286 11.714l443.711 443.713 443.713-443.713c7.81-7.81 18.048-11.714 28.286-11.714s20.474 3.904 28.286 11.714c15.622 15.622 15.622 40.95 0 56.57l-443.713 443.713z" />
<glyph unicode="&#xe916;" glyph-name="mobile" d="M685.896 959.999h-345.937c-58.812 0-108.784-47.954-108.784-106.751v-810.621c0-58.796 48.914-106.629 107.727-106.629l346.506 0.374c58.804 0 106.913 47.841 106.913 106.645l0.504 810.287c-0.008 59.008-47.881 106.694-106.929 106.694zM462.952 895.997h100.366c8.817 0 15.998-7.157 15.998-15.998s-7.182-15.998-15.998-15.998h-100.366c-8.841 0-15.998 7.157-15.998 15.998s7.157 15.998 15.998 15.998zM402.643 890.906c5.929 5.921 16.722 6.002 22.643 0 2.969-2.961 4.725-7.117 4.725-11.362 0-4.164-1.757-8.312-4.725-11.281-2.952-2.969-7.125-4.717-11.281-4.717-4.237 0-8.312 1.749-11.362 4.717-2.952 2.961-4.636 7.117-4.636 11.281-0.008 4.246 1.684 8.402 4.636 11.362zM509.906-32.289c-26.401 0-47.873 21.488-47.873 47.881 0 26.401 21.472 47.881 47.873 47.881s47.873-21.48 47.873-47.881c0-26.393-21.48-47.881-47.873-47.881zM743.163 96.015h-455.99v711.979h455.99v-711.979z" />
<glyph unicode="&#xe917;" glyph-name="email" d="M678.784 442.751l345.216-218.24v445.696zM0 670.207v-445.696l345.216 218.24zM960 799.999h-896c-31.936 0-57.28-23.808-62.080-54.464l510.080-336.064 510.080 336.064c-4.8 30.656-30.144 54.464-62.080 54.464zM620.16 404.095l-90.56-59.648c-5.376-3.52-11.456-5.248-17.6-5.248s-12.224 1.728-17.6 5.248l-90.56 59.712-401.792-254.144c4.928-30.4 30.144-54.016 61.952-54.016h896c31.808 0 57.024 23.616 61.952 54.016l-401.792 254.080z" />
<glyph unicode="&#xe918;" glyph-name="interface" d="M989.932 725.413c-20.441 21.414-48.669 34.068-80.791 34.068h-161.582v1.947c0 24.335-9.734 47.696-26.281 63.27-16.548 16.548-38.935 26.281-63.27 26.281h-292.015c-25.308 0-47.696-9.734-64.243-26.281s-26.281-38.935-26.281-63.27v-1.947h-160.608c-32.122 0-60.35-12.654-80.791-34.068-20.441-20.441-34.068-49.643-34.068-80.791v-484.745c0-32.122 12.654-60.35 34.068-80.791 20.441-20.441 49.643-34.068 80.791-34.068h794.281c32.122 0 60.35 12.654 80.791 34.068 20.441 20.441 34.068 49.643 34.068 80.791v484.745c0 32.122-12.654 60.35-34.068 80.791zM973.384 159.877h-0.973c0-17.521-6.814-33.095-18.494-44.776s-27.255-18.494-44.776-18.494h-794.281c-17.521 0-33.095 6.814-44.776 18.494s-18.494 27.255-18.494 44.776v484.745c0 17.521 6.814 33.095 18.494 44.776s27.255 18.494 44.776 18.494h187.863c14.601 0 26.281 11.681 26.281 26.281v28.228c0 10.707 3.894 20.441 10.707 27.255s16.548 10.707 27.255 10.707h291.042c10.707 0 20.441-3.894 27.255-10.707s10.707-16.548 10.707-27.255v-28.228c0-14.601 11.681-26.281 26.281-26.281h187.863c17.521 0 33.095-6.814 44.776-18.494s18.494-27.255 18.494-44.776v-484.745zM512 641.702c-66.19 0-126.54-27.255-169.369-70.084-43.802-43.802-70.084-103.179-70.084-169.369s27.255-126.54 70.084-169.369c43.802-43.802 103.179-70.084 169.369-70.084s126.54 27.255 169.369 70.084c43.802 43.802 70.084 103.179 70.084 169.369s-27.255 126.54-70.084 169.369c-42.829 42.829-103.179 70.084-169.369 70.084zM644.38 268.896c-34.068-33.095-80.791-54.51-132.38-54.51s-98.312 21.414-132.38 54.51c-34.068 34.068-54.51 80.791-54.51 132.38s21.414 98.312 54.51 132.38c34.068 34.068 80.791 54.51 132.38 54.51s98.312-21.414 132.38-54.51c34.068-34.068 54.51-80.791 54.51-132.38 0.973-51.589-20.441-98.312-54.51-132.38zM906.221 594.98c0-26.342-21.354-47.696-47.696-47.696s-47.696 21.354-47.696 47.696c0 26.342 21.354 47.696 47.696 47.696s47.696-21.354 47.696-47.696z" />
<glyph unicode="&#xe919;" glyph-name="upload" d="M825.814 531.839c-29.014 146.774-158.508 257.494-313.814 257.494-123.306 0-230.186-69.974-283.734-172.16-128.212-13.868-228.266-122.454-228.266-254.508 0-141.44 114.56-256 256-256h554.666c117.76 0 213.334 95.574 213.334 213.334 0 112.64-87.68 203.946-198.186 211.84zM597.334 405.333v-170.666h-170.666v170.666h-128l213.332 213.332 213.334-213.334h-128z" />
<glyph unicode="&#xe91a;" glyph-name="profile" d="M512 959.999c-148.878 0-270-121.122-270-270s121.122-270 270-270 270 121.122 270 270-121.122 270-270 270zM847.932 243.609c-73.92 75.056-171.914 116.39-275.932 116.39h-120c-104.016 0-202.012-41.334-275.932-116.39-73.558-74.688-114.068-173.276-114.068-277.61 0-16.568 13.432-30 30-30h840c16.568 0 30 13.432 30 30 0 104.334-40.51 202.922-114.068 277.61z" />
<glyph unicode="&#xe91b;" glyph-name="view" d="M1017.492 467.916c-9.148 12.514-227.114 306.413-505.497 306.413s-496.359-293.899-505.497-306.401c-8.664-11.872-8.664-27.974 0-39.846 9.138-12.514 227.114-306.413 505.497-306.413s496.349 293.901 505.497 306.403c8.676 11.87 8.676 27.984 0 39.844zM511.995 189.185c-205.058 0-382.661 195.066-435.235 258.837 52.506 63.826 229.736 258.791 435.235 258.791 205.048 0 382.639-195.032 435.235-258.837-52.506-63.824-229.736-258.791-435.235-258.791zM511.995 650.548c-111.684 0-202.55-90.866-202.55-202.55s90.866-202.55 202.55-202.55 202.55 90.866 202.55 202.55-90.866 202.55-202.55 202.55zM511.995 312.966c-74.46 0-135.032 60.574-135.032 135.032s60.574 135.032 135.032 135.032 135.032-60.574 135.032-135.032-60.572-135.032-135.032-135.032z" />
<glyph unicode="&#xea90;" glyph-name="facebook" d="M608 767.999h160v192h-160c-123.514 0-224-100.486-224-224v-96h-128v-192h128v-512h192v512h160l32 192h-192v96c0 17.346 14.654 32 32 32z" />
<glyph unicode="&#xea96;" glyph-name="twitter" d="M1024 733.599c-37.6-16.8-78.2-28-120.6-33 43.4 26 76.6 67.2 92.4 116.2-40.6-24-85.6-41.6-133.4-51-38.4 40.8-93 66.2-153.4 66.2-116 0-210-94-210-210 0-16.4 1.8-32.4 5.4-47.8-174.6 8.8-329.4 92.4-433 219.6-18-31-28.4-67.2-28.4-105.6 0-72.8 37-137.2 93.4-174.8-34.4 1-66.8 10.6-95.2 26.2 0-0.8 0-1.8 0-2.6 0-101.8 72.4-186.8 168.6-206-17.6-4.8-36.2-7.4-55.4-7.4-13.6 0-26.6 1.4-39.6 3.8 26.8-83.4 104.4-144.2 196.2-146-72-56.4-162.4-90-261-90-17 0-33.6 1-50.2 3 93.2-59.8 203.6-94.4 322.2-94.4 386.4 0 597.8 320.2 597.8 597.8 0 9.2-0.2 18.2-0.6 27.2 41 29.4 76.6 66.4 104.8 108.6z" />
<glyph unicode="&#xea9d;" glyph-name="youtube" d="M1013.8 652.799c0 0-10 70.6-40.8 101.6-39 40.8-82.6 41-102.6 43.4-143.2 10.4-358.2 10.4-358.2 10.4h-0.4c0 0-215 0-358.2-10.4-20-2.4-63.6-2.6-102.6-43.4-30.8-31-40.6-101.6-40.6-101.6s-10.2-82.8-10.2-165.8v-77.6c0-82.8 10.2-165.8 10.2-165.8s10-70.6 40.6-101.6c39-40.8 90.2-39.4 113-43.8 82-7.8 348.2-10.2 348.2-10.2s215.2 0.4 358.4 10.6c20 2.4 63.6 2.6 102.6 43.4 30.8 31 40.8 101.6 40.8 101.6s10.2 82.8 10.2 165.8v77.6c-0.2 82.8-10.4 165.8-10.4 165.8zM406.2 315.199v287.8l276.6-144.4-276.6-143.4z" />
<glyph unicode="&#xeaca;" glyph-name="linkedin2" d="M384 575.999h177.106v-90.782h2.532c24.64 44.194 84.958 90.782 174.842 90.782 186.946 0 221.52-116.376 221.52-267.734v-308.266h-184.61v273.278c0 65.184-1.334 149.026-96.028 149.026-96.148 0-110.82-70.986-110.82-144.292v-278.012h-184.542v576zM64 575.999h192v-576h-192v576zM256 735.999c0-53.019-42.981-96-96-96s-96 42.981-96 96c0 53.019 42.981 96 96 96s96-42.981 96-96z" />
</font>
</defs>
</svg>
